# xmcd
#
# Track frame offsets:
#	150
#	16598
#	33775
#	48224
#	63555
#	82221
#	102016
#	120368
#	135098
#	150195
#
# Disc length: 2217 seconds
# Revision: 0
# Processed by: cddbd v1.5.2PL0 Copyright (c) Steve Scherf et al.
# Submitted via: dBpowerAMP V12.0
#
DISCID=6208a70a
DTITLE=Annie Sims - Annie
DYEAR=2007
DGENRE=Counry
TTITLE0=Love Never Said
TTITLE1=When You Say it First
TTITLE2=Nothing Broken But a Heart
TTITLE3=Just Can`t Tell
TTITLE4=Everything I Know About Leavin`
TTITLE5=21 to 17
TTITLE6=Sweet Music Man
TTITLE7=Wildflowers
TTITLE8=Through the Years
TTITLE9=Say Goodnight
EXTD=
EXTT0=
EXTT1=
EXTT2=
EXTT3=
EXTT4=
EXTT5=
EXTT6=
EXTT7=
EXTT8=
EXTT9=
PLAYORDER=
